<svg id="Group_133" data-name="Group 133" xmlns="http://www.w3.org/2000/svg" width="22" height="22" viewBox="0 0 22 22">
  <g id="Group_132" data-name="Group 132">
    <circle id="Ellipse_5" data-name="Ellipse 5" cx="11" cy="11" r="11" transform="translate(0 0)" fill="#022855"/>
  </g>
  <g id="Group_128" data-name="Group 128" transform="translate(4.345 6.517)">
    <path id="Path_26" data-name="Path 26" d="M9,9.987l5.784-3.716A1.358,1.358,0,0,0,13.982,6H4.026a1.358,1.358,0,0,0-.806.272Z" transform="translate(-2.668 -6)" fill="#fff"/>
    <path id="Path_27" data-name="Path 27" d="M8.581,12.143h0l-.077.036H8.467a.453.453,0,0,1-.131.036h0a.453.453,0,0,1-.113,0H8.187l-.077-.036h0L2.045,8.26A1.358,1.358,0,0,0,2,8.595v6.336a1.358,1.358,0,0,0,1.358,1.358h9.957a1.358,1.358,0,0,0,1.358-1.358V8.595a1.358,1.358,0,0,0-.045-.335Z" transform="translate(-2 -7.237)" fill="#fff"/>
  </g>
</svg>
