<svg xmlns="http://www.w3.org/2000/svg" width="21" height="22" viewBox="0 0 21 22">
  <g id="Group_135" data-name="Group 135" transform="translate(-0.241)">
    <g id="Group_130" data-name="Group 130" transform="translate(0)">
      <ellipse id="Ellipse_5" data-name="Ellipse 5" cx="10.5" cy="11" rx="10.5" ry="11" transform="translate(0.241 0)" fill="#022855"/>
    </g>
    <path id="Path_29" data-name="Path 29" d="M11.419,4.124h0a.737.737,0,1,0,.737.737A.737.737,0,0,0,11.419,4.124ZM14.243,5.61a4.66,4.66,0,0,0-.282-1.492,3.033,3.033,0,0,0-.712-1.087,2.886,2.886,0,0,0-1.087-.706,4.482,4.482,0,0,0-1.492-.289C10.019,2,9.81,2,8.14,2s-1.879,0-2.53.037a4.482,4.482,0,0,0-1.492.289,2.935,2.935,0,0,0-1.087.706,2.886,2.886,0,0,0-.706,1.087A4.482,4.482,0,0,0,2.037,5.61C2,6.261,2,6.47,2,8.14s0,1.879.037,2.53a4.482,4.482,0,0,0,.289,1.492,2.886,2.886,0,0,0,.706,1.087,2.935,2.935,0,0,0,1.087.706,4.482,4.482,0,0,0,1.492.289c.651.037.86.037,2.53.037s1.879,0,2.53-.037a4.482,4.482,0,0,0,1.492-.289,2.886,2.886,0,0,0,1.087-.706,2.978,2.978,0,0,0,.712-1.087,4.66,4.66,0,0,0,.282-1.492c0-.651.037-.86.037-2.53S14.28,6.261,14.243,5.61ZM13.138,10.6a3.445,3.445,0,0,1-.209,1.142,1.879,1.879,0,0,1-.46.706,1.959,1.959,0,0,1-.706.46,3.445,3.445,0,0,1-1.142.209c-.614.031-.841.037-2.456.037s-1.842,0-2.456-.037a3.518,3.518,0,0,1-1.191-.184,2.008,2.008,0,0,1-.675-.46,1.842,1.842,0,0,1-.454-.706A3.4,3.4,0,0,1,3.142,10.6c0-.614-.037-.841-.037-2.456s0-1.842.037-2.456a3.4,3.4,0,0,1,.215-1.167,1.842,1.842,0,0,1,.485-.675,1.928,1.928,0,0,1,.675-.491,3.518,3.518,0,0,1,1.167-.209c.614,0,.841-.037,2.456-.037s1.842,0,2.456.037a3.445,3.445,0,0,1,1.142.209,1.879,1.879,0,0,1,.731.491,1.879,1.879,0,0,1,.46.675,3.445,3.445,0,0,1,.209,1.167c.031.614.037.841.037,2.456S13.169,9.982,13.138,10.6Zm-5-5.606a3.144,3.144,0,1,0,2.233.919A3.15,3.15,0,0,0,8.14,4.99Zm0,5.194A2.045,2.045,0,1,1,10.185,8.14,2.045,2.045,0,0,1,8.14,10.185Z" transform="translate(3.069 3.069)" fill="#fff"/>
  </g>
</svg>
