<svg xmlns="http://www.w3.org/2000/svg" width="41.745" height="42.227" viewBox="0 0 41.745 42.227">
  <g id="Group_955" data-name="Group 955" transform="translate(-1770 -17.965)">
    <g id="Group_892" data-name="Group 892" transform="translate(1770 30.59)">
      <path id="Path_76" data-name="Path 76" d="M11.1,0H0V11.1H11.1ZM9.25,9.25H1.85V1.85h7.4Z" fill="#022855"/>
      <path id="Path_77" data-name="Path 77" d="M2,2H5.7V5.7H2Z" transform="translate(1.7 1.7)" fill="#022855"/>
      <path id="Path_78" data-name="Path 78" d="M0,21.1H11.1V10H0Zm1.85-9.25h7.4v7.4H1.85Z" transform="translate(0 8.501)" fill="#022855"/>
      <path id="Path_79" data-name="Path 79" d="M2,12H5.7v3.7H2Z" transform="translate(1.7 10.201)" fill="#022855"/>
      <path id="Path_80" data-name="Path 80" d="M10,0V11.1H21.1V0Zm9.25,9.25h-7.4V1.85h7.4Z" transform="translate(8.501)" fill="#022855"/>
      <path id="Path_81" data-name="Path 81" d="M12,2h3.7V5.7H12Z" transform="translate(10.201 1.7)" fill="#022855"/>
      <path id="Path_82" data-name="Path 82" d="M3.7,7H0v3.7H5.55V8.85H3.7Z" transform="translate(0 5.951)" fill="#022855"/>
      <path id="Path_83" data-name="Path 83" d="M7,9h3.7v3.7H7Z" transform="translate(5.951 7.651)" fill="#022855"/>
      <path id="Path_84" data-name="Path 84" d="M3,7H6.7V8.85H3Z" transform="translate(2.55 5.951)" fill="#022855"/>
      <path id="Path_85" data-name="Path 85" d="M10.7,12H7v1.85H8.85V15.7H10.7V12Z" transform="translate(5.951 10.201)" fill="#022855"/>
      <path id="Path_86" data-name="Path 86" d="M6.85,7V8.85H5V10.7H8.7V7Z" transform="translate(4.25 5.951)" fill="#022855"/>
      <path id="Path_87" data-name="Path 87" d="M8,4H9.85V7.7H8Z" transform="translate(6.801 3.4)" fill="#022855"/>
      <path id="Path_88" data-name="Path 88" d="M9.85,8.85V10.7h3.7V7H8V8.85Z" transform="translate(6.801 5.951)" fill="#022855"/>
      <path id="Path_89" data-name="Path 89" d="M7,6H8.85V7.85H7Z" transform="translate(5.951 5.101)" fill="#022855"/>
      <path id="Path_90" data-name="Path 90" d="M9,14h3.7v3.7H9Z" transform="translate(7.651 11.901)" fill="#022855"/>
      <path id="Path_91" data-name="Path 91" d="M7,14H8.85v3.7H7Z" transform="translate(5.951 11.901)" fill="#022855"/>
      <path id="Path_92" data-name="Path 92" d="M9,11h1.85v1.85H9Z" transform="translate(7.651 9.351)" fill="#022855"/>
      <path id="Path_93" data-name="Path 93" d="M10.7,5.55V1.85H8.85V0H7V7.4H8.85V5.55Z" transform="translate(5.951)" fill="#022855"/>
      <path id="Path_94" data-name="Path 94" d="M12,14h1.85v3.7H12Z" transform="translate(10.201 11.901)" fill="#022855"/>
      <path id="Path_95" data-name="Path 95" d="M12,12h3.7v1.85H12Z" transform="translate(10.201 10.201)" fill="#022855"/>
      <path id="Path_96" data-name="Path 96" d="M11,13h1.85v1.85H11Z" transform="translate(9.351 11.051)" fill="#022855"/>
      <path id="Path_97" data-name="Path 97" d="M10,12h1.85v1.85H10Z" transform="translate(8.501 10.201)" fill="#022855"/>
      <path id="Path_98" data-name="Path 98" d="M14,10v1.85h1.85V13.7H17.7V10H14Z" transform="translate(11.901 8.501)" fill="#022855"/>
      <path id="Path_99" data-name="Path 99" d="M15.85,13H14v5.55h3.7v-3.7H15.85Z" transform="translate(11.901 11.051)" fill="#022855"/>
      <path id="Path_100" data-name="Path 100" d="M10,10.85V12.7h5.55V9h-3.7v1.85Z" transform="translate(8.501 7.651)" fill="#022855"/>
      <path id="Path_101" data-name="Path 101" d="M12,7V8.85h3.7V10.7h3.7V7H12Z" transform="translate(10.201 5.951)" fill="#022855"/>
    </g>
    <g id="Path_102" data-name="Path 102" transform="translate(1785.501 17.965)" fill="#022855">
      <path d="M 13.68781566619873 23.24666786193848 C 13.66639804840088 23.24666786193848 13.64486694335938 23.2464542388916 13.62331485748291 23.24603080749512 C 13.60175514221191 23.2464542388916 13.58021545410156 23.24666786193848 13.5587854385376 23.24666786193848 C 12.68050575256348 23.24666786193848 11.85502624511719 22.90439796447754 11.23441600799561 22.28290748596191 L 3.961575746536255 15.0020866394043 C 2.681715726852417 13.72089672088623 2.681705951690674 11.63616752624512 3.961605787277222 10.35491752624512 C 4.582275867462158 9.733596801757812 5.407655715942383 9.391417503356934 6.285696029663086 9.391417503356934 C 7.163745880126953 9.391417503356934 7.9891357421875 9.733596801757812 8.609795570373535 10.35493755340576 L 10.39142608642578 12.13853454589844 L 10.39142608642578 5.231906890869141 C 10.39142608642578 3.449827194213867 11.84124565124512 1.999997138977051 13.62332630157471 1.999997138977051 C 15.40540599822998 1.999997138977051 16.8552360534668 3.449827194213867 16.8552360534668 5.231906890869141 L 16.8552360534668 12.13858127593994 L 18.63692665100098 10.35494709014893 C 19.25765609741211 9.733587265014648 20.0830249786377 9.391417503356934 20.96105575561523 9.391417503356934 C 21.83907508850098 9.391417503356934 22.6644458770752 9.733587265014648 23.28512573242188 10.35488700866699 C 24.56487655639648 11.63622665405273 24.56487655639648 13.7208366394043 23.28526496887207 15.00199699401855 L 16.01214599609375 22.28313636779785 C 15.39094543457031 22.90462684631348 14.56564617156982 23.24666786193848 13.68781566619873 23.24666786193848 Z" stroke="none"/>
      <path d="M 13.62332630157471 3.999996185302734 C 12.94295597076416 3.999996185302734 12.39142608642578 4.551548004150391 12.39142608642578 5.231906890869141 L 12.39142608642578 16.97072601318359 L 7.194826126098633 11.76838684082031 C 6.69273567199707 11.26575565338135 5.878664016723633 11.26575946807861 5.376565933227539 11.76838684082031 C 4.874475479125977 12.2710075378418 4.874475479125977 13.08603668212891 5.376565933227539 13.58864688873291 L 12.64963626861572 20.86969757080078 C 12.91707611083984 21.13751792907715 13.27309894561768 21.26255226135254 13.62332630157471 21.24505615234375 C 13.9735689163208 21.26255798339844 14.32958698272705 21.13738632202148 14.59715557098389 20.86969757080078 L 21.87019538879395 13.58864688873291 C 22.37219619750977 13.08603668212891 22.37219619750977 12.2710075378418 21.87019538879395 11.76838684082031 C 21.36806488037109 11.26575660705566 20.55402565002441 11.26575660705566 20.05190658569336 11.76838684082031 L 14.8552360534668 16.97072601318359 L 14.8552360534668 5.231906890869141 C 14.8552360534668 4.551548004150391 14.30371570587158 3.999996185302734 13.62332630157471 3.999996185302734 M 13.62332630157471 -3.814697265625e-06 C 16.50820541381836 -3.814697265625e-06 18.8552360534668 2.347026824951172 18.8552360534668 5.231906890869141 L 18.8552360534668 7.825979232788086 C 19.51099967956543 7.541080474853516 20.22454452514648 7.391416549682617 20.96104621887207 7.391416549682617 C 22.37365531921387 7.391416549682617 23.7015266418457 7.941867828369141 24.70002555847168 8.941366195678711 C 26.75833511352539 11.00220680236816 26.75831604003906 14.35487747192383 24.70033645629883 16.41535568237305 L 17.4271354675293 23.69656753540039 C 16.42770576477051 24.69647789001465 15.10003566741943 25.24666786193848 13.68781566619873 25.24666786193848 C 13.64492988586426 25.24666786193848 13.60167503356934 25.24666786193848 13.5587854385376 25.24666786193848 C 12.14573574066162 25.24666786193848 10.81765556335449 24.69599723815918 9.819185256958008 23.69609642028809 L 2.546585083007812 16.41552734375 C 0.4881858825683594 14.35498714447021 0.4881763458251953 11.00209712982178 2.546646118164062 8.941457748413086 C 3.545116424560547 7.94190788269043 4.873016357421875 7.391416549682617 6.285696029663086 7.391416549682617 C 7.022214889526367 7.391416549682617 7.735664367675781 7.541040420532227 8.391426086425781 7.825935363769531 L 8.391426086425781 5.231906890869141 C 8.391426086425781 2.347026824951172 10.73844528198242 -3.814697265625e-06 13.62332630157471 -3.814697265625e-06 Z" stroke="none" fill="#fff"/>
    </g>
  </g>
</svg>
