<svg xmlns="http://www.w3.org/2000/svg" width="22" height="22" viewBox="0 0 22 22">
  <g id="Group_129" data-name="Group 129" transform="translate(0.276)">
    <circle id="Ellipse_5" data-name="Ellipse 5" cx="11" cy="11" r="11" transform="translate(-0.276 0)" fill="#022855"/>
    <g id="Group_127" data-name="Group 127" transform="translate(4.574 5.574)">
      <path id="Path_23" data-name="Path 23" d="M8.4,0V0h.59l.215.043A2.3,2.3,0,0,1,9.6.153a2.783,2.783,0,0,1,.34.159,3.235,3.235,0,0,1,.3.185,1.836,1.836,0,0,1,.238.2A.33.33,0,0,0,10.8.749a4.353,4.353,0,0,0,.476-.142q.255-.091.5-.2t.3-.144l.057-.034,0,0,.011-.006L12.169.21,12.18.2,12.192.2l0,0,0,0,0,0,0,0,.011,0,.011,0,0,.017,0,.017-.006.017L12.209.25,12.2.261,12.2.272l-.006.017a.394.394,0,0,0-.011.045,1.9,1.9,0,0,1-.108.227,2.837,2.837,0,0,1-.255.4,1.98,1.98,0,0,1-.274.308q-.122.105-.162.147a.487.487,0,0,1-.1.079l-.057.037-.011.006-.011.006,0,0,0,0,0,0,0,0-.011.006-.011.006,0,0,0,0,0,0,0,0,0,0,0,0,0,0,0,0H11.2l.318-.068a5.683,5.683,0,0,0,.607-.164l.306-.1.034-.011.017-.006.011-.006.011-.006.011-.006.011-.006.023,0,.023,0v.023l-.006,0-.006,0,0,0,0,0,0,0,0,0,0,0,0,0,0,0,0,0,0,0,0,0-.006.011-.006.011,0,0-.144.193a1.594,1.594,0,0,1-.153.193q-.011,0-.032.034a3.251,3.251,0,0,1-.24.253,5.708,5.708,0,0,1-.433.394.537.537,0,0,0-.215.426q0,.252-.026.569t-.085.686A8.18,8.18,0,0,1,11,4.877a7.578,7.578,0,0,1-.318.907,7.068,7.068,0,0,1-.391.794q-.2.352-.374.6t-.346.459q-.176.215-.445.485l-.295.295q-.026.025-.222.186t-.42.324a4.854,4.854,0,0,1-.411.269q-.187.108-.451.246a5.37,5.37,0,0,1-.569.259q-.306.119-.646.221a5.9,5.9,0,0,1-.658.159q-.318.057-.72.1l-.4.04v.006H3.6v-.006l-.1-.006L3.34,10.2q-.062-.006-.471-.062t-.641-.113Q2,9.963,1.537,9.8a6.731,6.731,0,0,1-.786-.321q-.325-.161-.408-.2t-.184-.1l-.1-.062,0,0,0,0,0,0,0,0L.034,9.1.023,9.09l0,0,0,0,0,0,0,0,0,0,0,0H0V9.05l.011,0,.011,0,.051.006q.051.006.278.017t.482,0a5.071,5.071,0,0,0,.522-.051,5.878,5.878,0,0,0,.629-.136,4.65,4.65,0,0,0,.667-.229q.3-.134.431-.2a4.2,4.2,0,0,0,.388-.24l.261-.176,0,0,0,0,0,0,0,0,0,0,0,0,0,0,0,0,.011,0,.011,0,0-.011,0-.011,0,0,0,0L3.7,7.984l-.176-.011a1.7,1.7,0,0,1-.267-.051,2.558,2.558,0,0,1-.391-.136,3.016,3.016,0,0,1-.408-.215,2.009,2.009,0,0,1-.287-.208q-.087-.082-.227-.231a2.3,2.3,0,0,1-.24-.31,2.782,2.782,0,0,1-.2-.366l-.094-.206-.006-.017L1.4,6.215l0-.011,0-.011.017,0,.017,0,.125.017a2.772,2.772,0,0,0,.391.011A3.029,3.029,0,0,0,2.314,6.2q.1-.017.125-.023l.023-.006.028-.006.028-.006,0,0,0,0,0,0,0,0-.023-.006-.023-.006-.023-.006L2.438,6.13l-.023-.006L2.336,6.1q-.057-.017-.306-.125a2.342,2.342,0,0,1-.4-.21,2.741,2.741,0,0,1-.281-.223,3.209,3.209,0,0,1-.291-.315A2.269,2.269,0,0,1,.777,4.78,2.724,2.724,0,0,1,.59,4.293a2.633,2.633,0,0,1-.082-.471l-.02-.238.011,0,.011,0L.522,3.6.533,3.6l.011.006.011.006.176.079a2.218,2.218,0,0,0,.437.136q.261.057.312.062l.051.006h.1l0,0,0,0,0,0,0,0,0,0,0,0,0,0,0,0L1.6,3.867l-.011-.006,0,0,0,0,0,0,0,0-.011-.006-.011-.006,0,0-.1-.073a1.487,1.487,0,0,1-.2-.185q-.1-.113-.2-.238a1.839,1.839,0,0,1-.181-.267,3.231,3.231,0,0,1-.168-.361,2.56,2.56,0,0,1-.133-.439,2.5,2.5,0,0,1-.051-.437,2.749,2.749,0,0,1,.011-.369A2.409,2.409,0,0,1,.6,1.123,2.7,2.7,0,0,1,.749.714L.845.5.851.482.856.465l0,0,0,0,0,0,0,0,0,0,0,0,0,0,0,0,0,0,0,0,0,0,0,0L.9.488.9.5l0,0,0,0,.153.17q.153.17.363.38a2.133,2.133,0,0,0,.232.218.166.166,0,0,1,.057.052,2.315,2.315,0,0,0,.227.2q.193.159.5.369t.692.414a6.75,6.75,0,0,0,.817.369q.437.164.612.215t.6.13q.425.079.641.1t.295.026l.079,0,0-.017,0-.017-.023-.142a2.665,2.665,0,0,1-.023-.4,2.6,2.6,0,0,1,.04-.471,2.788,2.788,0,0,1,.119-.437,2.332,2.332,0,0,1,.155-.355,3.491,3.491,0,0,1,.2-.3A2.445,2.445,0,0,1,6.969.663,2.385,2.385,0,0,1,7.423.34,2.949,2.949,0,0,1,7.893.125a2.193,2.193,0,0,1,.363-.1A1.261,1.261,0,0,0,8.4,0Z" transform="translate(0)" fill="#fff"/>
    </g>
  </g>
</svg>
