<?xml version="1.0" encoding="utf-8"?>
<!-- Generator: Adobe Illustrator 26.0.3, SVG Export Plug-In . SVG Version: 6.00 Build 0)  -->
<svg version="1.1" baseProfile="basic" id="Layer_1"
	 xmlns="http://www.w3.org/2000/svg" xmlns:xlink="http://www.w3.org/1999/xlink" x="0px" y="0px" viewBox="0 0 1532 275"
	 xml:space="preserve">
<style type="text/css">
	.st0{fill:#022855;}
</style>
<g>
	<g id="Group_954" transform="translate(-75 -24)">
		<g id="Group_136" transform="translate(75 24)">
			<g>
				<path class="st0" d="M292.4,218.7c-1.7,0-3.1-0.6-4.2-1.7c-1.1-1.2-1.6-2.5-1.6-4.1V62.1c0-1.7,0.5-3.1,1.6-4.2
					c1.1-1.1,2.5-1.6,4.2-1.6h63.1c20.1,0,35.9,4.6,47.3,13.8c11.4,9.2,17.2,22.2,17.2,39.1c0,11-2.6,20.3-7.9,27.8
					c-5.3,7.6-12.2,13.3-20.9,17.2l31.8,57.1c0.5,0.9,0.7,1.8,0.7,2.6c0,1.2-0.5,2.4-1.5,3.4c-1,1-2.1,1.5-3.4,1.5H388
					c-2.9,0-5.1-0.7-6.5-2.2c-1.4-1.5-2.4-2.8-3-4.1l-26.4-51h-23.7v51.5c0,1.5-0.6,2.9-1.7,4.1c-1.2,1.2-2.6,1.7-4.3,1.7H292.4z
					 M328.3,128.5H355c7.3,0,12.7-1.8,16.4-5.3c3.6-3.6,5.5-8.4,5.5-14.4s-1.7-10.9-5.2-14.6s-9-5.6-16.6-5.6h-26.7V128.5z"/>
				<path class="st0" d="M452.7,218.7c-1.7,0-3.1-0.6-4.2-1.7c-1.1-1.2-1.6-2.5-1.6-4.1V62.1c0-1.7,0.5-3.1,1.6-4.2
					c1.1-1.1,2.5-1.6,4.2-1.6H561c1.7,0,3.1,0.5,4.2,1.6c1.1,1.1,1.6,2.5,1.6,4.2v21.8c0,1.7-0.5,3.1-1.6,4.2
					c-1.1,1.1-2.5,1.6-4.2,1.6h-74V121h68.9c1.7,0,3.1,0.6,4.2,1.7c1.1,1.2,1.6,2.6,1.6,4.3v20.2c0,1.5-0.5,2.9-1.6,4.1
					c-1.1,1.2-2.5,1.7-4.2,1.7H487v32.2h75.9c1.7,0,3.1,0.5,4.2,1.6c1.1,1.1,1.6,2.5,1.6,4.2v21.8c0,1.5-0.5,2.9-1.6,4.1
					c-1.1,1.2-2.5,1.7-4.2,1.7H452.7z"/>
			</g>
			<g>
				<path class="st0" d="M604.4,218.7c-1.5,0-2.8-0.5-3.8-1.5c-1-1-1.5-2.3-1.5-3.8V61.9c0-1.7,0.5-3.1,1.5-4.1c1-1,2.3-1.5,3.8-1.5
					H616c1.9,0,3.2,0.5,4.2,1.4c0.9,0.9,1.5,1.7,1.9,2.3l49,93.7L720.4,60c0.3-0.6,0.9-1.4,1.7-2.3c0.8-0.9,2.2-1.4,4.1-1.4h11.4
					c1.7,0,3.1,0.5,4.1,1.5c1,1,1.5,2.4,1.5,4.1v151.5c0,1.5-0.5,2.8-1.5,3.8c-1,1-2.4,1.5-4.1,1.5h-11.4c-1.5,0-2.8-0.5-3.8-1.5
					c-1-1-1.5-2.3-1.5-3.8V99.2l-38.7,75.6c-0.6,1.5-1.5,2.7-2.8,3.6c-1.2,0.9-2.8,1.3-4.6,1.3h-7.2c-2,0-3.6-0.4-4.6-1.3
					c-1.1-0.8-2-2-2.8-3.6l-39-75.6v114.1c0,1.5-0.5,2.8-1.5,3.8c-1,1-2.3,1.5-3.8,1.5H604.4z"/>
				<path class="st0" d="M788.6,218.7c-1.7,0-3-0.5-3.9-1.5c-0.9-1-1.4-2.3-1.4-3.8V61.9c0-1.7,0.5-3.1,1.4-4.1
					c0.9-1,2.2-1.5,3.9-1.5h95.8c1.7,0,3,0.5,3.9,1.5c0.9,1,1.4,2.4,1.4,4.1v8.8c0,1.7-0.5,3-1.4,3.9c-0.9,0.9-2.2,1.4-3.9,1.4
					h-78.9v50.8h73.8c1.7,0,3,0.5,3.9,1.5c0.9,1,1.4,2.4,1.4,4.1v8.6c0,1.5-0.5,2.8-1.4,3.8c-0.9,1-2.2,1.5-3.9,1.5h-73.8V199h80.7
					c1.7,0,3,0.5,3.9,1.4c0.9,0.9,1.4,2.2,1.4,3.9v9c0,1.5-0.5,2.8-1.4,3.8c-0.9,1-2.2,1.5-3.9,1.5H788.6z"/>
				<path class="st0" d="M929.2,218.7c-1.5,0-2.8-0.5-3.8-1.5c-1-1-1.5-2.3-1.5-3.8V61.9c0-1.7,0.5-3.1,1.5-4.1c1-1,2.3-1.5,3.8-1.5
					h11.6c1.9,0,3.2,0.5,4.2,1.4s1.5,1.7,1.9,2.3l49,93.7l49.4-93.7c0.3-0.6,0.9-1.4,1.7-2.3c0.8-0.9,2.2-1.4,4.1-1.4h11.4
					c1.7,0,3.1,0.5,4.1,1.5c1,1,1.5,2.4,1.5,4.1v151.5c0,1.5-0.5,2.8-1.5,3.8c-1,1-2.4,1.5-4.1,1.5H1051c-1.5,0-2.8-0.5-3.8-1.5
					c-1-1-1.5-2.3-1.5-3.8V99.2l-38.7,75.6c-0.6,1.5-1.5,2.7-2.8,3.6c-1.2,0.9-2.8,1.3-4.6,1.3h-7.2c-2,0-3.6-0.4-4.6-1.3
					c-1.1-0.8-2-2-2.8-3.6l-39-75.6v114.1c0,1.5-0.5,2.8-1.5,3.8c-1,1-2.3,1.5-3.8,1.5H929.2z"/>
				<path class="st0" d="M1113.4,218.7c-1.7,0-3-0.5-3.9-1.5c-0.9-1-1.4-2.3-1.4-3.8V61.9c0-1.7,0.5-3.1,1.4-4.1
					c0.9-1,2.2-1.5,3.9-1.5h63.6c11.6,0,21.1,1.9,28.4,5.7c7.3,3.8,12.8,8.9,16.2,15.4c3.5,6.5,5.2,13.8,5.2,21.8
					c0,6.3-1,11.8-3.1,16.4c-2.1,4.6-4.7,8.3-7.8,11.1c-3.1,2.9-6.1,5.1-9,6.6c6,2.9,11.4,7.7,16.1,14.4c4.7,6.7,7.1,14.7,7.1,24.1
					c0,8.5-1.9,16.3-5.8,23.4c-3.9,7.1-9.6,12.8-17.3,17.1c-7.7,4.3-17.1,6.4-28.2,6.4H1113.4z M1130.8,125h42.7
					c9.9,0,17.4-2.3,22.5-6.8c5.1-4.6,7.7-10.8,7.7-18.7s-2.6-13.9-7.7-18.1c-5.1-4.2-12.6-6.3-22.5-6.3h-42.7V125z M1130.8,199.9
					h45c9.9,0,17.6-2.7,23-8.1c5.4-5.4,8.1-12.1,8.1-20c0-8.2-2.7-15-8.1-20.3c-5.4-5.3-13.1-8-23-8h-45V199.9z"/>
				<path class="st0" d="M1268.4,218.7c-1.7,0-3-0.5-3.9-1.5c-0.9-1-1.4-2.3-1.4-3.8V61.9c0-1.7,0.5-3.1,1.4-4.1
					c0.9-1,2.2-1.5,3.9-1.5h95.8c1.7,0,3,0.5,3.9,1.5c0.9,1,1.4,2.4,1.4,4.1v8.8c0,1.7-0.5,3-1.4,3.9c-0.9,0.9-2.2,1.4-3.9,1.4
					h-78.9v50.8h73.8c1.7,0,3,0.5,3.9,1.5c0.9,1,1.4,2.4,1.4,4.1v8.6c0,1.5-0.5,2.8-1.4,3.8c-0.9,1-2.2,1.5-3.9,1.5h-73.8V199h80.7
					c1.7,0,3,0.5,3.9,1.4c0.9,0.9,1.4,2.2,1.4,3.9v9c0,1.5-0.5,2.8-1.4,3.8c-0.9,1-2.2,1.5-3.9,1.5H1268.4z"/>
				<path class="st0" d="M1409,218.7c-1.7,0-3-0.5-3.9-1.5c-0.9-1-1.4-2.3-1.4-3.8V61.9c0-1.7,0.5-3.1,1.4-4.1
					c0.9-1,2.2-1.5,3.9-1.5h56.6c17.5,0,31.3,4.1,41.5,12.3c10.2,8.2,15.3,20.3,15.3,36.4c0,11.9-3,21.6-8.9,29.1
					c-6,7.5-14,12.7-24.2,15.7l35.7,61.7c0.5,0.9,0.7,1.8,0.7,2.6c0,1.2-0.5,2.3-1.5,3.2c-1,0.9-2.1,1.4-3.4,1.4h-11.1
					c-2.6,0-4.6-0.7-5.8-2.1c-1.2-1.4-2.3-2.8-3.2-4.2l-33.6-58.9h-40.6v59.9c0,1.5-0.5,2.8-1.5,3.8c-1,1-2.4,1.5-4.1,1.5H1409z
					 M1426.4,133.8h38.3c11.6,0,20.3-2.4,26-7.3c5.7-4.9,8.6-12.1,8.6-21.7c0-9.4-2.8-16.6-8.5-21.6c-5.6-4.9-14.3-7.4-26.1-7.4
					h-38.3V133.8z"/>
			</g>
		</g>
	</g>
	<g>
		<path class="st0" d="M110,33.9C52.7,33.9,6.3,80.3,6.3,137.5c0,57.2,46.4,103.6,103.6,103.6c57.2,0,103.6-46.4,103.6-103.6
			C213.6,80.3,167.2,33.9,110,33.9z M110,197.3c-14.9,0-27.1-12.1-27.1-27.1c0-12.6,8.7-23.3,20.4-26.2
			c-7.7-2.7-13.3-10.1-13.3-18.8c0-9,5.9-16.6,14.1-19.1c-5.3-2.3-9-7.5-9-13.6c0-8.2,6.6-14.8,14.8-14.8c8.2,0,14.8,6.6,14.8,14.8
			c0,6.1-3.7,11.3-9,13.6c8.2,2.5,14.1,10.1,14.1,19.1c0,8.7-5.5,16-13.3,18.8c11.7,3,20.4,13.6,20.4,26.2
			C137,185.2,124.9,197.3,110,197.3z"/>
	</g>
</g>
</svg>
