<svg xmlns="http://www.w3.org/2000/svg" xmlns:xlink="http://www.w3.org/1999/xlink" width="25" height="25" viewBox="0 0 25 25">
  <defs>
    <filter id="Ellipse_115" x="0" y="0" width="25" height="25" filterUnits="userSpaceOnUse">
      <feOffset dy="3" input="SourceAlpha"/>
      <feGaussianBlur stdDeviation="1" result="blur"/>
      <feFlood flood-opacity="0.161"/>
      <feComposite operator="in" in2="blur"/>
      <feComposite in="SourceGraphic"/>
    </filter>
  </defs>
  <g id="Group_1299" data-name="Group 1299" transform="translate(-458.579 -3059)">
    <g id="Group_1300" data-name="Group 1300" transform="translate(-0.937 -0.937)">
      <g transform="matrix(1, 0, 0, 1, 459.52, 3059.94)" filter="url(#Ellipse_115)">
        <g id="Ellipse_115-2" data-name="Ellipse 115" transform="translate(3)" fill="#fff" stroke="#00b3bf" stroke-width="1.5">
          <circle cx="9.5" cy="9.5" r="9.5" stroke="none"/>
          <circle cx="9.5" cy="9.5" r="8.75" fill="none"/>
        </g>
      </g>
      <g id="x" transform="translate(467.607 3065.028)">
        <path id="Path_384" data-name="Path 384" d="M17.129,9.151a.518.518,0,0,1,0,.733L9.883,17.13A.518.518,0,0,1,9.15,16.4L16.4,9.151a.518.518,0,0,1,.733,0Z" transform="translate(-8.998 -8.998)" fill="#00b3bf" stroke="#00b3bf" stroke-width="0.75" fill-rule="evenodd"/>
        <path id="Path_385" data-name="Path 385" d="M9.151,9.151a.518.518,0,0,0,0,.733L16.4,17.13a.518.518,0,0,0,.733-.733L9.883,9.151a.518.518,0,0,0-.733,0Z" transform="translate(-8.998 -8.998)" fill="#00b3bf" stroke="#00b3bf" stroke-width="0.75" fill-rule="evenodd"/>
      </g>
    </g>
  </g>
</svg>
