<?xml version="1.0" encoding="UTF-8"?><svg id="a" xmlns="http://www.w3.org/2000/svg" viewBox="0 0 1377.09 275"><defs><style>.d{fill:#fff;}</style></defs><g id="b" transform="translate(-75 -24)"><g id="c" transform="translate(75 24)"><g><path class="d" d="M137.49,218.7c-1.7,0-3.1-.6-4.2-1.7-1.1-1.2-1.6-2.5-1.6-4.1V62.1c0-1.7,.5-3.1,1.6-4.2,1.1-1.1,2.5-1.6,4.2-1.6h63.1c20.1,0,35.9,4.6,47.3,13.8,11.4,9.2,17.2,22.2,17.2,39.1,0,11-2.6,20.3-7.9,27.8-5.3,7.6-12.2,13.3-20.9,17.2l31.8,57.1c.5,.9,.7,1.8,.7,2.6,0,1.2-.5,2.4-1.5,3.4s-2.1,1.5-3.4,1.5h-30.8c-2.9,0-5.1-.7-6.5-2.2s-2.4-2.8-3-4.1l-26.4-51h-23.7v51.5c0,1.5-.6,2.9-1.7,4.1-1.2,1.2-2.6,1.7-4.3,1.7h-30v-.1Zm35.9-90.2h26.7c7.3,0,12.7-1.8,16.4-5.3,3.6-3.6,5.5-8.4,5.5-14.4s-1.7-10.9-5.2-14.6-9-5.6-16.6-5.6h-26.7v39.9h-.1Z"/><path class="d" d="M297.79,218.7c-1.7,0-3.1-.6-4.2-1.7-1.1-1.2-1.6-2.5-1.6-4.1V62.1c0-1.7,.5-3.1,1.6-4.2,1.1-1.1,2.5-1.6,4.2-1.6h108.3c1.7,0,3.1,.5,4.2,1.6,1.1,1.1,1.6,2.5,1.6,4.2v21.8c0,1.7-.5,3.1-1.6,4.2s-2.5,1.6-4.2,1.6h-74v31.3h68.9c1.7,0,3.1,.6,4.2,1.7,1.1,1.2,1.6,2.6,1.6,4.3v20.2c0,1.5-.5,2.9-1.6,4.1-1.1,1.2-2.5,1.7-4.2,1.7h-68.9v32.2h75.9c1.7,0,3.1,.5,4.2,1.6,1.1,1.1,1.6,2.5,1.6,4.2v21.8c0,1.5-.5,2.9-1.6,4.1-1.1,1.2-2.5,1.7-4.2,1.7h-110.2v.1Z"/></g><g><path class="d" d="M449.49,218.7c-1.5,0-2.8-.5-3.8-1.5s-1.5-2.3-1.5-3.8V61.9c0-1.7,.5-3.1,1.5-4.1s2.3-1.5,3.8-1.5h11.6c1.9,0,3.2,.5,4.2,1.4,.9,.9,1.5,1.7,1.9,2.3l49,93.7,49.3-93.7c.3-.6,.9-1.4,1.7-2.3,.8-.9,2.2-1.4,4.1-1.4h11.4c1.7,0,3.1,.5,4.1,1.5s1.5,2.4,1.5,4.1V213.4c0,1.5-.5,2.8-1.5,3.8s-2.4,1.5-4.1,1.5h-11.4c-1.5,0-2.8-.5-3.8-1.5s-1.5-2.3-1.5-3.8V99.2l-38.7,75.6c-.6,1.5-1.5,2.7-2.8,3.6-1.2,.9-2.8,1.3-4.6,1.3h-7.2c-2,0-3.6-.4-4.6-1.3-1.1-.8-2-2-2.8-3.6l-39-75.6v114.1c0,1.5-.5,2.8-1.5,3.8s-2.3,1.5-3.8,1.5h-11.5v.1Z"/><path class="d" d="M633.69,218.7c-1.7,0-3-.5-3.9-1.5s-1.4-2.3-1.4-3.8V61.9c0-1.7,.5-3.1,1.4-4.1s2.2-1.5,3.9-1.5h95.8c1.7,0,3,.5,3.9,1.5s1.4,2.4,1.4,4.1v8.8c0,1.7-.5,3-1.4,3.9s-2.2,1.4-3.9,1.4h-78.9v50.8h73.8c1.7,0,3,.5,3.9,1.5s1.4,2.4,1.4,4.1v8.6c0,1.5-.5,2.8-1.4,3.8s-2.2,1.5-3.9,1.5h-73.8v52.7h80.7c1.7,0,3,.5,3.9,1.4s1.4,2.2,1.4,3.9v9c0,1.5-.5,2.8-1.4,3.8s-2.2,1.5-3.9,1.5h-97.6v.1Z"/><path class="d" d="M774.29,218.7c-1.5,0-2.8-.5-3.8-1.5s-1.5-2.3-1.5-3.8V61.9c0-1.7,.5-3.1,1.5-4.1s2.3-1.5,3.8-1.5h11.6c1.9,0,3.2,.5,4.2,1.4s1.5,1.7,1.9,2.3l49,93.7,49.4-93.7c.3-.6,.9-1.4,1.7-2.3,.8-.9,2.2-1.4,4.1-1.4h11.4c1.7,0,3.1,.5,4.1,1.5s1.5,2.4,1.5,4.1V213.4c0,1.5-.5,2.8-1.5,3.8s-2.4,1.5-4.1,1.5h-11.5c-1.5,0-2.8-.5-3.8-1.5s-1.5-2.3-1.5-3.8V99.2l-38.7,75.6c-.6,1.5-1.5,2.7-2.8,3.6-1.2,.9-2.8,1.3-4.6,1.3h-7.2c-2,0-3.6-.4-4.6-1.3-1.1-.8-2-2-2.8-3.6l-39-75.6v114.1c0,1.5-.5,2.8-1.5,3.8s-2.3,1.5-3.8,1.5h-11.5v.1Z"/><path class="d" d="M958.49,218.7c-1.7,0-3-.5-3.9-1.5s-1.4-2.3-1.4-3.8V61.9c0-1.7,.5-3.1,1.4-4.1s2.2-1.5,3.9-1.5h63.6c11.6,0,21.1,1.9,28.4,5.7s12.8,8.9,16.2,15.4c3.5,6.5,5.2,13.8,5.2,21.8,0,6.3-1,11.8-3.1,16.4s-4.7,8.3-7.8,11.1c-3.1,2.9-6.1,5.1-9,6.6,6,2.9,11.4,7.7,16.1,14.4s7.1,14.7,7.1,24.1c0,8.5-1.9,16.3-5.8,23.4-3.9,7.1-9.6,12.8-17.3,17.1-7.7,4.3-17.1,6.4-28.2,6.4h-65.4Zm17.4-93.7h42.7c9.9,0,17.4-2.3,22.5-6.8,5.1-4.6,7.7-10.8,7.7-18.7s-2.6-13.9-7.7-18.1-12.6-6.3-22.5-6.3h-42.7v49.9Zm0,74.9h45c9.9,0,17.6-2.7,23-8.1,5.4-5.4,8.1-12.1,8.1-20s-2.7-15-8.1-20.3-13.1-8-23-8h-45v56.4Z"/><path class="d" d="M1113.49,218.7c-1.7,0-3-.5-3.9-1.5s-1.4-2.3-1.4-3.8V61.9c0-1.7,.5-3.1,1.4-4.1s2.2-1.5,3.9-1.5h95.8c1.7,0,3,.5,3.9,1.5s1.4,2.4,1.4,4.1v8.8c0,1.7-.5,3-1.4,3.9s-2.2,1.4-3.9,1.4h-78.9v50.8h73.8c1.7,0,3,.5,3.9,1.5s1.4,2.4,1.4,4.1v8.6c0,1.5-.5,2.8-1.4,3.8s-2.2,1.5-3.9,1.5h-73.8v52.7h80.7c1.7,0,3,.5,3.9,1.4s1.4,2.2,1.4,3.9v9c0,1.5-.5,2.8-1.4,3.8s-2.2,1.5-3.9,1.5h-97.6v.1Z"/><path class="d" d="M1254.09,218.7c-1.7,0-3-.5-3.9-1.5s-1.4-2.3-1.4-3.8V61.9c0-1.7,.5-3.1,1.4-4.1s2.2-1.5,3.9-1.5h56.6c17.5,0,31.3,4.1,41.5,12.3,10.2,8.2,15.3,20.3,15.3,36.4,0,11.9-3,21.6-8.9,29.1-6,7.5-14,12.7-24.2,15.7l35.7,61.7c.5,.9,.7,1.8,.7,2.6,0,1.2-.5,2.3-1.5,3.2s-2.1,1.4-3.4,1.4h-11.1c-2.6,0-4.6-.7-5.8-2.1-1.2-1.4-2.3-2.8-3.2-4.2l-33.6-58.9h-40.6v59.9c0,1.5-.5,2.8-1.5,3.8s-2.4,1.5-4.1,1.5h-11.9Zm17.4-84.9h38.3c11.6,0,20.3-2.4,26-7.3,5.7-4.9,8.6-12.1,8.6-21.7s-2.8-16.6-8.5-21.6c-5.6-4.9-14.3-7.4-26.1-7.4h-38.3v58Z"/></g></g></g><path class="d" d="M41.89,197.3c-14.9,0-27.1-12.1-27.1-27.1,0-12.6,8.7-23.3,20.4-26.2-7.7-2.7-13.3-10.1-13.3-18.8s5.9-16.6,14.1-19.1c-5.3-2.3-9-7.5-9-13.6,0-8.2,6.6-14.8,14.8-14.8s14.8,6.6,14.8,14.8c0,6.1-3.7,11.3-9,13.6,8.2,2.5,14.1,10.1,14.1,19.1s-5.5,16-13.3,18.8c11.7,3,20.4,13.6,20.4,26.2,.1,15-12,27.1-26.9,27.1Z"/></svg>