<svg xmlns="http://www.w3.org/2000/svg" width="21.305" height="13.579" viewBox="0 0 21.305 13.579">
  <g id="view" transform="translate(0.001 0)">
    <g id="Group_1154" data-name="Group 1154" transform="translate(-0.001 0)">
      <g id="Group_1153" data-name="Group 1153" transform="translate(0 0)">
        <path id="Path_197" data-name="Path 197" d="M21.17,99.21c-.19-.26-4.725-6.375-10.517-6.375S.325,98.95.135,99.21a.7.7,0,0,0,0,.829c.19.26,4.725,6.375,10.517,6.375s10.327-6.115,10.517-6.375A.7.7,0,0,0,21.17,99.21Zm-10.517,5.8c-4.266,0-7.962-4.059-9.055-5.385,1.092-1.328,4.78-5.384,9.055-5.384s7.961,4.058,9.055,5.385C18.615,100.953,14.928,105.009,10.652,105.009Z" transform="translate(0 -92.835)"/>
      </g>
    </g>
    <g id="Group_1156" data-name="Group 1156" transform="translate(6.437 2.575)">
      <g id="Group_1155" data-name="Group 1155" transform="translate(0 0)">
        <path id="Path_198" data-name="Path 198" d="M158.936,154.725a4.214,4.214,0,1,0,4.214,4.214A4.219,4.219,0,0,0,158.936,154.725Zm0,7.024a2.809,2.809,0,1,1,2.809-2.809A2.813,2.813,0,0,1,158.936,161.749Z" transform="translate(-154.722 -154.725)"/>
      </g>
    </g>
  </g>
</svg>
