<svg xmlns="http://www.w3.org/2000/svg" width="14.166" height="14.166" viewBox="0 0 14.166 14.166">
  <g id="Group_1359" data-name="Group 1359" transform="translate(-0.274 -0.392)">
    <g id="Group_1360" data-name="Group 1360" transform="translate(0.274 0.392)">
      <path id="Path_418" data-name="Path 418" d="M8.511,16.852c-.265-.036-.534-.058-.8-.11a6.791,6.791,0,0,1-5.376-4.454,7.109,7.109,0,0,1,11.6-7.6A6.874,6.874,0,0,1,15.992,8.9a7.014,7.014,0,0,1-1.082,4.695.675.675,0,0,1-.7.342.653.653,0,0,1-.557-.462.68.68,0,0,1,.087-.623,5.3,5.3,0,0,0,.826-2.09A5.61,5.61,0,0,0,12.275,5.1,5.461,5.461,0,0,0,8.663,4.01a5.729,5.729,0,1,0,1.8,11.245,1.147,1.147,0,0,1,.421-.047.662.662,0,0,1,.58.615.654.654,0,0,1-.485.72c-.48.114-.97.19-1.456.281-.059.011-.118.018-.177.027Z" transform="translate(-1.879 -2.686)" fill="#db4e41"/>
      <path id="Path_419" data-name="Path 419" d="M172.9,85.2c0-.741,0-1.482,0-2.223a.692.692,0,0,1,1.344-.224.859.859,0,0,1,.043.272q0,2.174,0,4.348a.7.7,0,1,1-1.39-.006q0-1.083,0-2.167" transform="translate(-166.541 -79.33)" fill="#db4e41"/>
      <path id="Path_420" data-name="Path 420" d="M173.631,265.008a.694.694,0,1,1-.7.686.7.7,0,0,1,.7-.686" transform="translate(-166.581 -255.263)" fill="#db4e41"/>
    </g>
  </g>
</svg>
