<svg id="Group_1359" data-name="Group 1359" xmlns="http://www.w3.org/2000/svg" xmlns:xlink="http://www.w3.org/1999/xlink" width="14.288" height="14.288" viewBox="0 0 14.288 14.288">
  <defs>
    <clipPath id="clip-path">
      <rect id="Rectangle_621" data-name="Rectangle 621" width="14.288" height="14.288" fill="#00b3bf"/>
    </clipPath>
  </defs>
  <g id="Group_1362" data-name="Group 1362" clip-path="url(#clip-path)">
    <path id="Path_421" data-name="Path 421" d="M14.288,6.724v.837a.958.958,0,0,0-.024.12,6.628,6.628,0,0,1-.81,2.8,7.015,7.015,0,0,1-6.01,3.791,6.449,6.449,0,0,1-3.314-.661A7,7,0,0,1,.015,7.444,6.588,6.588,0,0,1,.846,3.781,7.027,7.027,0,0,1,5.914.111C6.183.06,6.456.036,6.727,0h.837a.758.758,0,0,0,.108.023,6.736,6.736,0,0,1,2.815.81A7.039,7.039,0,0,1,14.176,5.9c.052.272.076.55.112.825m-7.136,6.61a6.192,6.192,0,1,0-6.2-6.188,6.207,6.207,0,0,0,6.2,6.188" transform="translate(0)" fill="#00b3bf"/>
    <path id="Path_422" data-name="Path 422" d="M86.637,118.238c.059-.074.087-.118.123-.154q2.03-2.032,4.061-4.064a.525.525,0,0,1,.47-.189.475.475,0,0,1,.309.743,1.1,1.1,0,0,1-.121.134l-4.427,4.428a.5.5,0,0,1-.825,0q-1.09-1.089-2.177-2.182a.728.728,0,0,1-.18-.289.446.446,0,0,1,.208-.5.465.465,0,0,1,.557.044c.039.033.075.07.111.106q.888.887,1.774,1.775a1.713,1.713,0,0,1,.117.152" transform="translate(-80.626 -109.446)" fill="#00b3bf"/>
  </g>
</svg>
