<svg xmlns="http://www.w3.org/2000/svg" width="20" height="20" viewBox="0 0 20 20">
  <path id="user_1_" data-name="user (1)" d="M17.071,2.929A10,10,0,0,0,2.928,17.071,10,10,0,0,0,17.071,2.929ZM4.34,16.769A5.721,5.721,0,0,1,10,11.735a5.7,5.7,0,0,1,5.66,5.035,8.81,8.81,0,0,1-11.32,0ZM10,10.528A3.037,3.037,0,1,1,13.037,7.49,3.041,3.041,0,0,1,10,10.528Zm6.669,5.251a6.889,6.889,0,0,0-4.312-4.8,4.209,4.209,0,1,0-4.712,0,6.883,6.883,0,0,0-4.314,4.8,8.828,8.828,0,1,1,13.338,0Zm0,0" transform="translate(0.001)" fill="#fff"/>
</svg>
