<svg id="Group_1087" data-name="Group 1087" xmlns="http://www.w3.org/2000/svg" width="64.326" height="64.325" viewBox="0 0 64.326 64.325">
  <g id="Group_425" data-name="Group 425" transform="translate(0 0)">
    <g id="Group_176" data-name="Group 176" transform="translate(0 0)">
      <path id="Path_34" data-name="Path 34" d="M32.163,0A32.163,32.163,0,1,1,0,32.163,32.163,32.163,0,0,1,32.163,0Z" transform="translate(0 0)" fill="#022855"/>
      <g id="_x38_" transform="translate(20.926 10.407)">
        <path id="Path_11" data-name="Path 11" d="M109.835,139.06c-1.7-3.032-1.6-7.116.3-12.142,5.719-15.114,6.9-18.33,7.634-27.795,14.311,20.947,14.714,31.97,12.253,37.626-1.966,4.516-6.118,6.426-8.779,7.213h-5.176A11.718,11.718,0,0,1,109.835,139.06Z" transform="translate(-108.629 -99.123)" fill="#fff"/>
      </g>
      <path id="Path_12" data-name="Path 12" d="M0,0V12.278" transform="translate(32.029 45.425)" fill="none" stroke="#022855" stroke-linecap="round" stroke-width="2.5"/>
    </g>
  </g>
</svg>
