<svg id="Group_1024" data-name="Group 1024" xmlns="http://www.w3.org/2000/svg" width="15.537" height="15.537" viewBox="0 0 15.537 15.537">
  <g id="Group_107" data-name="Group 107" transform="translate(0 0)">
    <path id="Path_41" data-name="Path 41" d="M7.768,0A7.768,7.768,0,1,1,0,7.768,7.768,7.768,0,0,1,7.768,0Z" fill="#022855"/>
  </g>
  <g id="Group_108" data-name="Group 108" transform="translate(3.884 3.263)">
    <path id="Path_3" data-name="Path 3" d="M103.769,96.206a1.1,1.1,0,1,0-1.1-1.1A1.106,1.106,0,0,0,103.769,96.206Zm0,.207c-.731,0-1.769.372-1.769,1.1v.551h3.447v-.551C105.447,96.785,104.5,96.413,103.769,96.413Z" transform="translate(-102 -94)" fill="#fff"/>
    <path id="Path_6" data-name="Path 6" d="M103.769,96.206a1.1,1.1,0,1,0-1.1-1.1A1.106,1.106,0,0,0,103.769,96.206Zm0,.207c-.731,0-1.769.372-1.769,1.1v.551h3.447v-.551C105.447,96.785,104.5,96.413,103.769,96.413Z" transform="translate(-102 -89.056)" fill="#fff"/>
    <path id="Path_4" data-name="Path 4" d="M103.769,96.206a1.1,1.1,0,1,0-1.1-1.1A1.106,1.106,0,0,0,103.769,96.206Zm0,.207c-.731,0-1.769.372-1.769,1.1v.551h3.447v-.551C105.447,96.785,104.5,96.413,103.769,96.413Z" transform="translate(-97.325 -94)" fill="#fff"/>
    <path id="Path_5" data-name="Path 5" d="M103.769,96.206a1.1,1.1,0,1,0-1.1-1.1A1.106,1.106,0,0,0,103.769,96.206Zm0,.207c-.731,0-1.769.372-1.769,1.1v.551h3.447v-.551C105.447,96.785,104.5,96.413,103.769,96.413Z" transform="translate(-97.325 -89.056)" fill="#fff"/>
  </g>
</svg>
