<svg xmlns="http://www.w3.org/2000/svg" width="18.353" height="14.212" viewBox="0 0 18.353 14.212">
  <g id="eye" transform="translate(-0.567 -4.5)">
    <path id="Path_172" data-name="Path 172" d="M18.316,15.158A3.158,3.158,0,1,1,15.158,12,3.158,3.158,0,0,1,18.316,15.158Zm-1.579,0a1.579,1.579,0,1,1-1.579-1.579A1.579,1.579,0,0,1,16.737,15.158Z" transform="translate(-5.415 -3.552)" fill="#fff" fill-rule="evenodd"/>
    <path id="Path_173" data-name="Path 173" d="M9.743,4.5a9.479,9.479,0,0,1,9.176,7.106,9.478,9.478,0,0,1-18.352,0A9.478,9.478,0,0,1,9.743,4.5Zm0,12.633a7.9,7.9,0,0,1-7.534-5.527,7.9,7.9,0,0,1,15.069,0A7.9,7.9,0,0,1,9.743,17.133Z" fill="#fff" fill-rule="evenodd"/>
  </g>
</svg>
