<svg xmlns="http://www.w3.org/2000/svg" xmlns:xlink="http://www.w3.org/1999/xlink" width="63.876" height="65" viewBox="0 0 63.876 65">
  <defs>
    <clipPath id="clip-path">
      <ellipse id="Ellipse_4" data-name="Ellipse 4" cx="31" cy="32.5" rx="31" ry="32.5" transform="translate(0.16 -0.471)" fill="#000027"/>
    </clipPath>
  </defs>
  <g id="Group_1086" data-name="Group 1086" transform="translate(0 0.471)">
    <g id="Group_177" data-name="Group 177" transform="translate(0 0)">
      <g id="Group_123" data-name="Group 123" transform="translate(0 0)">
        <g id="Group_121" data-name="Group 121" transform="translate(0 0)">
          <path id="Path_61" data-name="Path 61" d="M31.734,0A31.951,31.951,0,0,1,63.468,32.163,31.951,31.951,0,0,1,31.734,64.326,31.951,31.951,0,0,1,0,32.163,31.951,31.951,0,0,1,31.734,0Z" fill="#022855"/>
        </g>
        <g id="Mask_Group_3" data-name="Mask Group 3" transform="translate(1.716 0)" clip-path="url(#clip-path)">
          <path id="Path_21" data-name="Path 21" d="M24.929,65.082a.618.618,0,0,1-.411-.1A.943.943,0,0,1,24,63.642a96.791,96.791,0,0,0,7.2-36.614,1.028,1.028,0,0,1,2.057,0,97.217,97.217,0,0,1-7.405,37.437A.988.988,0,0,1,24.929,65.082Z" transform="translate(-1.498 18.777)" fill="#fff"/>
        </g>
      </g>
      <g id="Group_122" data-name="Group 122" transform="translate(17.927 18.036)">
        <path id="Path_14" data-name="Path 14" d="M32.114,22.626h0A10.315,10.315,0,0,0,42.4,12.342V2.057A2.063,2.063,0,0,0,40.342,0h0A12.378,12.378,0,0,0,28,12.342v6.171A4.126,4.126,0,0,0,32.114,22.626Z" transform="translate(-17.715 0)" fill="#fff"/>
        <path id="Path_15" data-name="Path 15" d="M32.285,22.626h0A10.315,10.315,0,0,1,22,12.342V2.057A2.063,2.063,0,0,1,24.057,0h0A12.378,12.378,0,0,1,36.4,12.342v6.171A4.126,4.126,0,0,1,32.285,22.626Z" transform="translate(-17.886 0)" fill="#fff"/>
        <path id="Path_16" data-name="Path 16" d="M44.456,4h0A16.5,16.5,0,0,0,28,20.456V24.57a4.126,4.126,0,0,0,4.114,4.114h0a14.441,14.441,0,0,0,14.4-14.4V6.057A2.063,2.063,0,0,0,44.456,4Z" transform="translate(-17.715 0.114)" fill="#fff" stroke="#022855" stroke-width="2"/>
        <path id="Path_17" data-name="Path 17" d="M20.057,4h0A16.5,16.5,0,0,1,36.513,20.456V24.57A4.126,4.126,0,0,1,32.4,28.683h0A14.441,14.441,0,0,1,18,14.285V6.057A2.063,2.063,0,0,1,20.057,4Z" transform="translate(-18 0.114)" fill="#fff" stroke="#022855" stroke-width="2"/>
      </g>
    </g>
  </g>
</svg>
