<svg xmlns="http://www.w3.org/2000/svg" width="13.918" height="13.917" viewBox="0 0 13.918 13.917">
  <g id="link" transform="translate(-1.125 -1.13)">
    <path id="Path_359" data-name="Path 359" d="M20.224,2.28a3.938,3.938,0,0,0-5.562,0L11.881,5.061l.654.654,2.781-2.781A3.008,3.008,0,1,1,19.57,7.188L16.789,9.969l.654.654,2.781-2.781A3.937,3.937,0,0,0,20.224,2.28Z" transform="translate(-6.332 0)" fill="#022855"/>
    <path id="Path_360" data-name="Path 360" d="M7.184,19.8a3.007,3.007,0,1,1-4.253-4.253l2.617-2.617-.654-.654L2.277,14.9a3.933,3.933,0,1,0,5.562,5.562l2.617-2.618L9.8,17.187Z" transform="translate(0 -6.563)" fill="#022855"/>
    <path id="Path_361" data-name="Path 361" d="M9.1,16.038l6.544-6.544.654.654L9.751,16.692Z" transform="translate(-4.693 -4.924)" fill="#022855"/>
  </g>
</svg>
