<svg xmlns="http://www.w3.org/2000/svg" width="49.879" height="49.877" viewBox="0 0 49.879 49.877">
  <g id="location" transform="translate(-4.556 -4.56)">
    <path id="Path_362" data-name="Path 362" d="M61.622,28.445a6.2,6.2,0,1,0-6.2,6.2,6.2,6.2,0,0,0,6.2-6.2Zm-10.931,0a4.731,4.731,0,1,1,4.732,4.732A4.731,4.731,0,0,1,50.691,28.445Z" transform="translate(-25.927 -10.266)" fill="#acabab"/>
    <path id="Path_363" data-name="Path 363" d="M54.387,53.441,48.4,37.75a.735.735,0,0,0-.686-.472H36.388c.069-.113.138-.222.207-.336,4.359-7.216,6.552-13.529,6.521-18.76a13.62,13.62,0,1,0-27.241,0c-.031,5.233,2.162,11.547,6.521,18.762.069.115.138.224.207.336H11.275a.735.735,0,0,0-.686.472L4.6,53.441a.733.733,0,0,0,.686,1H53.7a.733.733,0,0,0,.686-1ZM17.344,18.179a12.152,12.152,0,0,1,24.3,0C41.711,28.612,31.96,41.475,29.5,44.56c-2.464-3.083-12.215-15.943-12.152-26.381ZM28.936,46.2a.734.734,0,0,0,1.119,0,77.917,77.917,0,0,0,5.412-7.451H47.209l.94,2.465L25.2,49.371,17.025,38.744h6.5A77.918,77.918,0,0,0,28.936,46.2Zm-3.759,4.741h0L38.871,46.07l5.309,6.9H19.469Zm-13.4-12.193h3.39l8.576,11.144-8.661,3.08H6.356ZM46.035,52.969l-5.71-7.418,8.349-2.969,3.962,10.388Z" fill="#acabab"/>
  </g>
</svg>
