<svg xmlns="http://www.w3.org/2000/svg" width="20" height="20" viewBox="0 0 20 20">
  <g id="Group_1298" data-name="Group 1298" transform="translate(-454 -2259)">
    <g id="x" transform="translate(459.678 2264.678)">
      <path id="Path_384" data-name="Path 384" d="M17.487,9.157a.54.54,0,0,1,0,.765L9.922,17.487a.541.541,0,0,1-.765-.765l7.565-7.565a.54.54,0,0,1,.765,0Z" transform="translate(-8.998 -8.998)" fill="#acabab" stroke="#acabab" stroke-width="0.75" fill-rule="evenodd"/>
      <path id="Path_385" data-name="Path 385" d="M9.157,9.157a.54.54,0,0,0,0,.765l7.565,7.565a.541.541,0,0,0,.765-.765L9.922,9.157a.54.54,0,0,0-.765,0Z" transform="translate(-8.998 -8.998)" fill="#acabab" stroke="#acabab" stroke-width="0.75" fill-rule="evenodd"/>
    </g>
    <g id="Ellipse_113" data-name="Ellipse 113" transform="translate(454 2259)" fill="none" stroke="#acacac" stroke-width="1.5">
      <circle cx="10" cy="10" r="10" stroke="none"/>
      <circle cx="10" cy="10" r="9.25" fill="none"/>
    </g>
  </g>
</svg>
