<svg xmlns="http://www.w3.org/2000/svg" width="44.158" height="39.199" viewBox="0 0 44.158 39.199">
  <path id="photo" d="M39.022,58.261a.69.69,0,1,1-.977.975l-1.752-1.752v5.544a.69.69,0,1,1-1.38,0V57.485l-1.752,1.751a.69.69,0,0,1-.975-.975l2.929-2.93a.691.691,0,0,1,.977,0Zm3.7,2.028A7.174,7.174,0,0,0,36.468,52.3a7.354,7.354,0,0,0-.879-.054,7.175,7.175,0,1,0,7.137,8.04Zm-37.3,2.838H27.89a8.552,8.552,0,0,1,9.615-12.039V45.649L32.961,41.1,23.535,47.9l2.81,1.97A.69.69,0,1,1,25.553,51L11.391,41.072,1.38,49.538v9.539a4.053,4.053,0,0,0,4.048,4.048Zm0-32.967H33.457a4.052,4.052,0,0,1,4.048,4.048V43.7l-3.983-3.983a.691.691,0,0,0-.892-.072L22.339,47.061,11.748,39.637a.691.691,0,0,0-.842.039L1.38,47.732V34.207a4.052,4.052,0,0,1,4.048-4.048Zm36.91,23.989a8.5,8.5,0,0,0-3.453-2.622V34.207a5.434,5.434,0,0,0-5.428-5.428H5.428A5.434,5.434,0,0,0,0,34.207V59.078a5.435,5.435,0,0,0,5.428,5.429h23.3c.048.065.1.129.147.193A8.554,8.554,0,0,0,42.338,54.148ZM21.756,35.062a3.163,3.163,0,1,1-3.163,3.163,3.163,3.163,0,0,1,3.163-3.163Zm0,7.706A4.543,4.543,0,1,1,26.3,38.225,4.543,4.543,0,0,1,21.756,42.768Z" transform="translate(0 -28.779)" fill="#acabab" fill-rule="evenodd"/>
</svg>
