<svg xmlns="http://www.w3.org/2000/svg" width="44.158" height="39.199" viewBox="0 0 44.158 39.199">
  <g id="Group_1287" data-name="Group 1287" transform="translate(-258.921 -3235.643)">
    <path id="photo" d="M39.022,58.261a.69.69,0,1,1-.977.975l-1.752-1.752v5.544a.69.69,0,1,1-1.38,0V57.485l-1.752,1.751a.69.69,0,0,1-.975-.975l2.929-2.93a.691.691,0,0,1,.977,0Zm3.7,2.028A7.174,7.174,0,0,0,36.468,52.3a7.354,7.354,0,0,0-.879-.054,7.175,7.175,0,1,0,7.137,8.04Zm-37.3,2.838H27.89a8.552,8.552,0,0,1,9.615-12.039V45.649L32.961,41.1,23.535,47.9c3.122,2.188,3.2,2.619,2.979,2.931a.69.69,0,0,1-.961.169L11.391,41.072,1.38,49.538v9.539a4.053,4.053,0,0,0,4.048,4.048Zm0-32.967H33.457a4.052,4.052,0,0,1,4.048,4.048V43.7l-3.983-3.983a.691.691,0,0,0-.892-.072L22.339,47.061,11.748,39.637a.691.691,0,0,0-.842.039L1.38,47.732V34.207a4.052,4.052,0,0,1,4.048-4.048Zm36.91,23.989a8.5,8.5,0,0,0-3.453-2.622V34.207a5.434,5.434,0,0,0-5.428-5.428H5.428A5.434,5.434,0,0,0,0,34.207V59.078a5.435,5.435,0,0,0,5.428,5.429h23.3c.048.065.1.129.147.193A8.554,8.554,0,0,0,42.338,54.148ZM21.756,35.062a3.163,3.163,0,1,1-3.163,3.163,3.163,3.163,0,0,1,3.163-3.163Zm0,7.706A4.543,4.543,0,1,1,26.3,38.225,4.543,4.543,0,0,1,21.756,42.768Z" transform="translate(258.921 3206.864)" fill="#acabab" fill-rule="evenodd"/>
    <path id="Path_364" data-name="Path 364" d="M-1235.664,2868.46l17.761-11.291,9.327.491,8.993,9.318v5.677l-9.395,5-26.687,1.922Z" transform="translate(1496 382)" fill="#fff"/>
    <g id="Polygon_4" data-name="Polygon 4" transform="translate(284.638 3248.235) rotate(90)" fill="#fff">
      <path d="M 9.565385818481445 9.638398170471191 L 1.699516296386719 9.638398170471191 C 1.441446304321289 9.638398170471191 1.31217634677887 9.466058731079102 1.268576264381409 9.391968727111816 C 1.22498631477356 9.317868232727051 1.13710629940033 9.12117862701416 1.262436270713806 8.895578384399414 L 5.195366382598877 1.816298604011536 C 5.324326515197754 1.584178686141968 5.543986320495605 1.559118628501892 5.6324462890625 1.559118628501892 C 5.720906257629395 1.559118628501892 5.940566062927246 1.584178686141968 6.069526195526123 1.816298604011536 L 10.00245666503906 8.895578384399414 C 10.12776660919189 9.121138572692871 10.03988647460938 9.317848205566406 9.996286392211914 9.391948699951172 C 9.952675819396973 9.466048240661621 9.823416709899902 9.638398170471191 9.565385818481445 9.638398170471191 Z" stroke="none"/>
      <path d="M 5.6324462890625 2.059118270874023 L 1.699516296386719 9.138399124145508 L 9.565341949462891 9.138399124145508 C 9.565347671508789 9.138388633728027 9.565353393554688 9.138378143310547 9.565376281738281 9.138399124145508 L 5.632456302642822 2.059128761291504 C 5.632454395294189 2.059124946594238 5.632457733154297 2.05911922454834 5.6324462890625 2.059118270874023 M 5.6324462890625 1.059121131896973 C 5.974273681640625 1.059121131896973 6.31610107421875 1.230573654174805 6.506606101989746 1.573478698730469 L 10.43953609466553 8.652758598327637 C 10.8098258972168 9.31928825378418 10.32800197601318 10.13808441162109 9.565376281738281 10.13839912414551 L 1.699516296386719 10.13839912414551 C 0.9370260238647461 10.13839912414551 0.4550666809082031 9.31928825378418 0.8253564834594727 8.652758598327637 L 4.758286476135254 1.573478698730469 C 4.94879150390625 1.230573654174805 5.290618896484375 1.059121131896973 5.6324462890625 1.059121131896973 Z" stroke="none" fill="#acabab"/>
    </g>
  </g>
</svg>
